<?xml version="1.0" encoding="UTF-8"?>
<svg width="800px" height="600px" viewBox="0 0 800 600" version="1.1" xmlns="http://www.w3.org/2000/svg">
    <g stroke="none" stroke-width="1" fill="none" fill-rule="evenodd">
        <rect fill="#F8F9FA" x="0" y="0" width="800" height="600"/>
        <g transform="translate(100, 50)">
            <!-- School Building -->
            <rect fill="#0D6EFD" x="200" y="150" width="300" height="250" rx="8"/>
            <rect fill="#FFFFFF" x="250" y="200" width="60" height="80" rx="4"/>
            <rect fill="#FFFFFF" x="350" y="200" width="60" height="80" rx="4"/>
            <path d="M200,150 L350,50 L500,150" stroke="#0D6EFD" stroke-width="16"/>
            
            <!-- Students -->
            <circle fill="#0D6EFD" cx="150" y="350" r="30"/>
            <circle fill="#0D6EFD" cx="550" y="350" r="30"/>
            <rect fill="#0D6EFD" x="130" y="380" width="40" height="60" rx="4"/>
            <rect fill="#0D6EFD" x="530" y="380" width="40" height="60" rx="4"/>
            
            <!-- Books -->
            <rect fill="#0D6EFD" x="50" y="200" width="80" height="100" rx="4"/>
            <rect fill="#FFFFFF" x="60" y="220" width="60" height="10"/>
            <rect fill="#FFFFFF" x="60" y="240" width="60" height="10"/>
            <rect fill="#FFFFFF" x="60" y="260" width="60" height="10"/>
        </g>
    </g>
</svg>
